<svg width="74" height="35" viewBox="0 0 74 35" fill="none" xmlns="http://www.w3.org/2000/svg">
<path d="M73.611 15.3086C73.2912 14.0229 72.6151 12.8884 71.6584 12.0341C70.8729 11.331 70.1463 10.9136 69.2318 10.6923C68.0255 9.6811 66.9117 9.33376 64.9704 9.33376C63.5088 9.33376 61.977 9.85477 60.6473 10.7147C60.3387 10.6055 60.0301 10.5495 59.7636 10.5214C59.7383 10.485 59.7131 10.4486 59.685 10.415C58.8153 9.33376 57.3481 9.33376 56.8656 9.33376L54.7812 9.33656C53.112 9.33656 52.1806 9.97802 51.6419 10.7231C51.367 10.6251 51.0612 10.5607 50.7218 10.527C50.7106 10.513 50.7021 10.4962 50.6909 10.4822C52.4443 9.85197 53.7039 8.17128 53.7039 6.20208C53.7039 4.01999 52.1609 2.19364 50.1074 1.75667C49.3331 1.14882 48.3596 0.784668 47.302 0.784668C44.794 0.784668 42.7517 2.8239 42.7517 5.33092C42.7517 7.07884 43.742 8.59706 45.1923 9.35897C44.2245 9.4346 43.467 9.75113 42.8891 10.317C42.8162 10.387 42.7488 10.4598 42.6843 10.5383C42.5384 10.513 42.387 10.5018 42.2299 10.499C42.2242 10.4906 42.2186 10.4822 42.213 10.4738C41.7277 9.74273 40.9197 9.34216 39.935 9.34216H37.1829C35.6007 9.34216 34.5066 10.0424 33.9343 11.4262V11.429V11.4318L33.8109 11.7371C33.7295 11.6195 33.6425 11.5074 33.5472 11.401C33.0366 10.8464 32.3464 10.5382 31.5469 10.5018C31.4824 10.4122 31.4123 10.3254 31.3365 10.2441C30.7923 9.65309 30.0432 9.33936 29.1735 9.33936H26.3682C24.3904 9.33936 23.5207 10.4486 23.1391 11.3786L23.0494 11.5971C22.9989 11.5243 22.9456 11.4542 22.8867 11.387C22.4125 10.8464 21.7561 10.5579 20.8864 10.5074C20.8247 10.4122 20.7546 10.3198 20.676 10.2301C20.1514 9.63348 19.408 9.34216 18.398 9.34216L15.2027 9.34496L11.8502 9.34776C11.637 9.31695 11.4182 9.30015 11.2022 9.30015C10.4279 9.30015 9.6452 9.49342 8.87091 9.87718L3.23768 12.4122C1.22621 13.3198 0.320069 15.7036 1.2178 17.7232C1.77046 18.9669 2.90945 19.8296 4.22237 20.0509C4.48047 20.3142 4.77223 20.5411 5.08924 20.7232L4.35984 24.698V24.7036V24.7092C4.13821 25.9726 4.41033 27.2219 5.13132 28.2303C5.80181 29.1715 6.79211 29.8157 7.9311 30.0622C8.57073 30.6645 9.37308 31.0762 10.2596 31.2443C10.5485 31.2975 10.8403 31.3255 11.1321 31.3255C12.2093 31.3255 13.2557 30.9502 14.0861 30.2667C14.4985 29.925 14.8464 29.516 15.1129 29.0622C15.1466 29.1014 15.1802 29.1378 15.2167 29.1743C15.7357 29.7093 16.4174 30.0286 17.2506 30.1294C17.3067 30.1995 17.3656 30.2667 17.4274 30.3311C18.0642 30.9866 18.9479 31.3199 20.0532 31.3199L23.8237 31.3255C24.7326 31.3255 25.4929 30.9866 26.0876 30.3143C26.3625 30.0062 26.5786 29.6477 26.7609 29.2835C27.1537 29.6645 27.7765 30.0566 28.705 30.1463C28.7415 30.1939 28.7808 30.2387 28.8201 30.2835C29.2437 30.7569 30.0236 31.3227 31.3253 31.3227L35.6288 31.3199C36.5349 31.3199 37.2952 31.0202 37.8843 30.432C38.4229 29.8914 38.7652 29.1546 39.0289 28.5076L39.3319 27.7569C39.4188 28.3115 39.6321 28.7989 39.9659 29.1967C40.3166 29.614 40.9562 30.107 42.0307 30.1603C42.0756 30.2247 42.1232 30.2919 42.1765 30.3535C42.5497 30.7961 43.2454 31.3227 44.4461 31.3227H47.4002C48.8618 31.3227 49.6698 30.6084 50.0906 30.0062C50.1046 29.9866 50.1158 29.967 50.1298 29.9474C50.4076 30.0566 50.7358 30.1322 51.1173 30.1575C51.1482 30.2023 51.1819 30.2471 51.2155 30.2891C51.5943 30.7625 52.3152 31.3227 53.5917 31.3227H56.1081C57.2864 31.3227 58.2262 30.8437 58.8266 29.9362C59.2782 29.2555 59.4634 28.446 59.598 27.6728L60.7763 21.1798C60.9811 20.0509 61.531 19.4963 61.7554 19.1742C61.7526 19.2022 61.7498 19.2302 61.747 19.2582L60.5771 26.2499V26.2555V26.2611C60.3359 27.7849 60.7959 28.7009 61.2224 29.1995C61.7161 29.7765 62.4427 30.1126 63.2787 30.1547C63.3292 30.2275 63.3825 30.2947 63.4358 30.3563C63.966 30.9754 64.76 31.3171 65.6745 31.3171L68.5669 31.3143C69.7227 31.3143 70.6429 30.8437 71.232 29.953C71.6809 29.2723 71.866 28.4516 72.0007 27.6644L73.6699 18.7148C73.8999 17.5747 73.8831 16.401 73.611 15.3086Z" fill="#020202"/>
<path d="M62.9542 19.434L61.7815 26.4508C61.5346 28.0223 62.1995 28.941 63.4591 28.941L66.3515 28.9382C67.9927 28.9382 68.3517 27.6525 68.5846 26.294L70.2566 17.3219C70.6353 15.5376 70.3183 13.2938 68.6351 11.7896C67.6251 10.8849 66.7891 10.5571 64.9741 10.5571C62.5698 10.5571 59.8402 12.291 58.7264 14.5572L58.9425 13.4311C59.4502 11.1566 58.488 10.5571 56.8721 10.5571L54.7877 10.5599C52.7818 10.5599 52.3414 11.658 52.1029 12.9017L49.6538 26.4536C49.449 27.3696 49.5753 28.9438 51.3847 28.9438H54.2911C55.9968 28.9438 56.3559 27.5853 56.5775 26.3024L57.7558 19.8065C58.0251 18.3247 58.2551 17.5936 58.7601 17.0558C59.5428 16.1594 61.0858 15.7729 62.1771 16.6608C62.8784 17.2323 63.1225 18.1454 62.9542 19.434Z" fill="white"/>
<path d="M47.5013 26.2998C47.2628 27.706 46.856 28.9441 45.1924 28.9441H42.2384C40.8244 28.9441 40.3279 27.8797 40.5691 26.5127L42.9986 12.9047C43.2427 11.4566 43.8683 10.563 45.6834 10.563H47.9109C49.7961 10.563 50.2842 11.4678 49.855 13.437L47.5013 26.2998Z" fill="white"/>
<path d="M47.3096 8.66089C49.1471 8.66089 50.6368 7.17068 50.6368 5.33313C50.6368 3.49558 49.1471 2.00537 47.3096 2.00537C45.4721 2.00537 43.9824 3.49558 43.9824 5.33313C43.9824 7.17068 45.4721 8.66089 47.3096 8.66089Z" fill="#00A3FF"/>
<path d="M15.2056 10.5657C15.9462 11.448 16.8159 12.5629 16.3866 15.1932L15.2252 21.3837L15.4384 26.3725C15.4777 28.1512 16.3361 28.9412 17.8398 28.9412L21.6131 28.9468C22.811 28.9468 23.2907 28.0364 23.776 26.8823L26.6544 19.7982L26.9461 26.5574C26.9714 28.056 27.7345 28.9468 29.1175 28.9468L33.421 28.944C34.6441 28.944 35.1547 28.2129 35.6906 26.8907L41.1807 13.3304C41.7755 11.927 41.4332 10.5601 39.9463 10.5601H37.1914C36.1647 10.5601 35.4773 10.9158 35.0734 11.8906L31.3646 20.9775L31.0252 12.871C30.9691 11.1483 30.1443 10.5601 29.1792 10.5601H26.3738C25.2657 10.5601 24.6205 11.0026 24.2754 11.843L20.5526 20.9803L20.2188 12.6749C20.1711 11.1175 19.6521 10.5629 18.4009 10.5629L15.2056 10.5657Z" fill="white"/>
<path d="M14.4043 14.7225C14.7382 13.0755 14.121 11.8738 13.0353 11.0867C12.0057 10.3976 10.7321 10.3135 9.39671 10.983L3.74104 13.5293C2.33554 14.1623 1.70713 15.8178 2.33554 17.2296C2.96395 18.6413 4.61632 19.2716 6.02183 18.6413L6.77928 18.2996L5.56174 24.9187C5.21107 26.9019 6.50996 28.5518 8.27175 28.8851C10.1429 29.2381 11.9412 28.0112 12.2554 26.1512L14.4043 14.7225Z" fill="#00A3FF"/>
</svg>
