<svg width="44" height="44" viewBox="0 0 44 44" fill="none" xmlns="http://www.w3.org/2000/svg">
<path d="M33.3849 13.5851C34.205 12.7649 34.205 11.4352 33.3849 10.6151C32.5647 9.79497 31.235 9.79497 30.4149 10.6151L22 19.03L13.5851 10.6151C12.765 9.79497 11.4353 9.79497 10.6151 10.6151C9.79499 11.4352 9.79499 12.7649 10.6151 13.5851L19.03 22L10.6151 30.4149C9.79497 31.2351 9.79497 32.5648 10.6151 33.3849C11.4352 34.205 12.7649 34.205 13.5851 33.3849L22 24.97L30.4149 33.3849C31.2351 34.205 32.5648 34.205 33.3849 33.3849C34.205 32.5648 34.205 31.2351 33.3849 30.4149L24.97 22L33.3849 13.5851Z" fill="#747474"/>
</svg>
