<svg width="84" height="14" viewBox="0 0 84 14" fill="none"
  xmlns="http://www.w3.org/2000/svg">
  <mask id="mask0_238_6193" style="mask-type:luminance" maskUnits="userSpaceOnUse" x="0" y="2" width="84" height="10">
    <path d="M84 2.07245H0.666565V11.9275H84V2.07245Z" fill="white"/>
  </mask>
  <g mask="url(#mask0_238_6193)">
    <path d="M49.4812 9.05385V11.932H46.0162V4.1532H55.9608V6.18681H49.4812V7.02025H55.9608V9.05385H49.4812Z" fill="white"/>
    <path d="M66.7133 9.56491V11.9319H57.2307V4.15308H60.6959V9.56491H66.7133Z" fill="white"/>
    <path d="M71.0757 4.1532V11.932H67.6104V4.1532H71.0757Z" fill="white"/>
    <path d="M75.86 9.86508V11.932H72.3953V4.1532H79.7414C81.3195 4.1532 82.4248 4.35323 83.0562 4.75328C83.6876 5.15333 84.003 5.87936 84.003 6.93135V7.08693C84.003 8.07224 83.6795 8.78347 83.0331 9.22055C82.3936 9.65022 81.2964 9.86508 79.7414 9.86508H75.86ZM79.2559 6.18681H75.86V7.83148H79.2559C79.7721 7.83148 80.1147 7.77959 80.2842 7.67586C80.4532 7.56476 80.5383 7.35733 80.5383 7.05358V6.96468C80.5383 6.66094 80.4532 6.45721 80.2842 6.35349C80.1147 6.24237 79.7721 6.18681 79.2559 6.18681Z" fill="white"/>
    <path d="M7.29801 12.0428H6.14302C4.1256 12.0428 2.70879 11.7724 1.89258 11.2316C1.07638 10.6908 0.668274 9.70178 0.668274 8.26456V7.82002C0.668274 6.3828 1.07638 5.39378 1.89258 4.85297C2.70879 4.31216 4.1256 4.04175 6.14302 4.04175H7.29801C9.16144 4.04175 10.5051 4.2677 11.329 4.71962C12.1529 5.17153 12.6264 5.97163 12.7496 7.11993H9.21532C9.09981 6.75692 8.88806 6.51985 8.58007 6.40873C8.27209 6.2976 7.66763 6.24204 6.7667 6.24204H6.67434C6.12761 6.24204 5.69256 6.27167 5.36916 6.33094C5.04576 6.3828 4.7955 6.48281 4.6184 6.63098C4.449 6.77174 4.33735 6.93843 4.28345 7.13105C4.22955 7.32366 4.2026 7.58666 4.2026 7.92002V8.17564C4.2026 8.62012 4.2565 8.95352 4.3643 9.17579C4.4721 9.3906 4.7031 9.5573 5.0573 9.67584C5.41921 9.78697 5.95821 9.84254 6.67434 9.84254H6.7667C7.66763 9.84254 8.27209 9.78697 8.58007 9.67584C8.88806 9.5647 9.09981 9.32762 9.21532 8.9646H12.7496C12.6264 10.1129 12.1529 10.913 11.329 11.365C10.5051 11.8168 9.16144 12.0428 7.29801 12.0428Z" fill="white"/>
    <path d="M30.7522 4.15308V11.9319H27.2871V4.15308H30.7522Z" fill="white"/>
    <path d="M44.6964 4.15308V11.9319H39.4527L35.4217 6.86455H35.3062V11.9319H32.0722V4.15308H37.3159L41.3469 9.23151H41.4624V4.15308H44.6964Z" fill="white"/>
    <path d="M21.3243 10.343L20.1553 10.6092C18.1097 11.0749 16.6064 11.1394 15.6452 10.8025C14.6915 10.4639 14.0426 9.59527 13.6986 8.19668L13.5922 7.76412C13.2482 6.36555 13.4236 5.30927 14.1184 4.59532C14.8206 3.87967 16.1946 3.28895 18.2402 2.82318L19.4091 2.55702C21.4547 2.09125 22.9544 2.02767 23.9081 2.36627C24.8692 2.70316 25.5218 3.57091 25.8659 4.96951L25.9722 5.40206C26.3163 6.80065 26.1372 7.85777 25.4349 8.57346C24.7401 9.28737 23.3699 9.87722 21.3243 10.343ZM20.1008 8.36055L20.3255 8.30938C20.7901 8.20359 21.1716 8.09769 21.4699 7.99168C21.7665 7.87848 21.9996 7.76451 22.1692 7.64976C22.3463 7.53331 22.4667 7.39551 22.5304 7.23635C22.5923 7.06998 22.6188 6.90409 22.6097 6.73866C22.6082 6.57153 22.5755 6.35819 22.5117 6.09866L22.4505 5.84994C22.3849 5.5832 22.3139 5.37479 22.2373 5.22472C22.1684 5.07294 22.0683 4.93965 21.9372 4.82485C21.8118 4.70114 21.6429 4.62542 21.4303 4.59768C21.2178 4.56995 20.9534 4.57304 20.6373 4.60694C20.3195 4.63364 19.9283 4.69988 19.4637 4.80566L19.2389 4.85684C18.7744 4.96262 18.3938 5.07211 18.0972 5.18532C17.7989 5.29132 17.5611 5.40254 17.384 5.51899C17.207 5.63545 17.0875 5.77686 17.0255 5.94322C16.9693 6.10067 16.942 6.26296 16.9435 6.4301C16.9526 6.59553 16.9899 6.81161 17.0555 7.07835L17.1166 7.32707C17.1964 7.65148 17.2856 7.90142 17.3842 8.07692C17.481 8.24524 17.637 8.38098 17.8523 8.48421C18.0658 8.58025 18.3483 8.61873 18.6997 8.59963C19.0567 8.57162 19.5238 8.49189 20.1008 8.36055Z" fill="#D8BB31"/>
  </g>
</svg>