<svg xmlns="http://www.w3.org/2000/svg" fill="none" viewBox="0 0 92 26">
  <path fill="#fff" d="M44.398 20h-3.636l1.422-6.426L38.044 20h-3.618l-1.26-6.39L31.744 20h-3.636l2.628-11.808h4.662l1.548 7.758 4.896-7.758h5.184L44.398 20Zm7.7853-11.808L49.5553 20h-3.708l2.646-11.808h3.69Zm13.969 0L63.5243 20h-3.348l-4.158-6.966L54.4703 20h-3.456l2.628-11.808h3.348l4.158 6.966 1.548-6.966h3.456Zm12.718 0-.666 3.006h-7.29l-.324 1.404h6.93l-.648 2.97h-6.93l-.342 1.404h7.29L76.2423 20h-10.98l2.628-11.808h10.98Zm5.0378 12.042c-1.8 0-3.186-.3-4.158-.9-.96-.6-1.44-1.452-1.44-2.556 0-.228.03-.504.09-.828l.036-.18h3.582l-.036.18c-.012.048-.018.12-.018.216 0 .348.204.624.612.828.408.192.99.288 1.746.288.792 0 1.386-.066 1.782-.198.408-.144.642-.354.702-.63l.018-.108c.024-.18-.042-.324-.198-.432-.144-.12-.402-.21-.774-.27l-2.988-.504c-1.092-.192-1.92-.528-2.484-1.008-.564-.492-.846-1.116-.846-1.872 0-.24.024-.474.072-.702l.036-.18c.228-1.14.846-1.992 1.854-2.556 1.02-.576 2.448-.864 4.284-.864 1.776 0 3.138.288 4.086.864.96.576 1.44 1.398 1.44 2.466 0 .264-.024.51-.072.738l-.018.144h-3.546l.018-.144c.012-.036.018-.096.018-.18 0-.624-.738-.936-2.214-.936-1.44 0-2.208.234-2.304.702l-.018.108c-.024.144.036.264.18.36.156.096.414.174.774.234l3.006.504c1.128.192 1.98.534 2.556 1.026.576.492.864 1.122.864 1.89 0 .204-.03.456-.09.756l-.036.18c-.456 2.376-2.628 3.564-6.516 3.564Z"/>
  <path fill="#C22A20" d="M12.5933 1.77684c.3778-.74032 1.4356-.74032 1.8134 0l2.6048 5.10473c.1479.28985.4255.49151.7468.54261l5.6599.89988c.8208.13051 1.1477 1.13655.5603 1.72464l-4.0499 4.0547c-.23.2303-.336.5566-.2853.878l.8931 5.6609c.1296.821-.7262 1.4427-1.467 1.0659l-5.1078-2.5988c-.2901-.1475-.6331-.1475-.9232 0l-5.1078 2.5988c-.74077.3768-1.59656-.2449-1.46703-1.0659l.89314-5.6609c.05071-.3214-.05531-.6477-.28527-.878l-4.04995-4.0547c-.58735-.58809-.26047-1.59413.56036-1.72464l5.65981-.89988c.32137-.0511.59894-.25276.74685-.54262l2.60479-5.10472Z"/>
  <path fill="url(#a)" d="M12.5933 1.77684c.3778-.74032 1.4356-.74032 1.8134 0l2.6048 5.10473c.1479.28985.4255.49151.7468.54261l5.6599.89988c.8208.13051 1.1477 1.13655.5603 1.72464l-4.0499 4.0547c-.23.2303-.336.5566-.2853.878l.8931 5.6609c.1296.821-.7262 1.4427-1.467 1.0659l-5.1078-2.5988c-.2901-.1475-.6331-.1475-.9232 0l-5.1078 2.5988c-.74077.3768-1.59656-.2449-1.46703-1.0659l.89314-5.6609c.05071-.3214-.05531-.6477-.28527-.878l-4.04995-4.0547c-.58735-.58809-.26047-1.59413.56036-1.72464l5.65981-.89988c.32137-.0511.59894-.25276.74685-.54262l2.60479-5.10472Z"/>
  <path fill="url(#b)" d="M12.0858 2.55922c.3809-.74563 1.4475-.74563 1.8284 0l2.6684 5.22348c.1492.29193.4291.49504.7531.5465l5.798.92082c.8277.13144 1.1573 1.14468.5651 1.73698l-4.1489 4.1491c-.2319.2319-.3388.5605-.2876.8842l.9149 5.7926c.1306.8269-.7323 1.4531-1.4792 1.0735l-5.2326-2.6592c-.2924-.1486-.6384-.1486-.9308 0l-5.23258 2.6592c-.74693.3796-1.60983-.2466-1.47923-1.0735l.91496-5.7926c.05113-.3237-.05577-.6523-.28764-.8842L2.30124 10.987c-.59223-.5923-.26263-1.60554.56502-1.73698l5.79805-.92082c.32404-.05146.60391-.25457.75305-.5465l2.66844-5.22348Z"/>
  <path fill="url(#c)" d="M12.0858 2.55922c.3809-.74563 1.4475-.74563 1.8284 0l2.6684 5.22348c.1492.29193.4291.49504.7531.5465l5.798.92082c.8277.13144 1.1573 1.14468.5651 1.73698l-4.1489 4.1491c-.2319.2319-.3388.5605-.2876.8842l.9149 5.7926c.1306.8269-.7323 1.4531-1.4792 1.0735l-5.2326-2.6592c-.2924-.1486-.6384-.1486-.9308 0l-5.23258 2.6592c-.74693.3796-1.60983-.2466-1.47923-1.0735l.91496-5.7926c.05113-.3237-.05577-.6523-.28764-.8842L2.30124 10.987c-.59223-.5923-.26263-1.60554.56502-1.73698l5.79805-.92082c.32404-.05146.60391-.25457.75305-.5465l2.66844-5.22348Z"/>
  <path fill="url(#d)" fill-rule="evenodd" d="m16.2779 7.93802-2.6684-5.22348c-.254-.49708-.965-.49708-1.219.00001L9.72209 7.93802c-.19884.38924-.57201.66006-1.00406.72868l-5.79805.92081c-.55177.08763-.7715.76309-.37668 1.15799l4.14887 4.1491c.30916.3092.4517.7474.38352 1.179l-.91496 5.7926c-.08707.5512.4882.9687.98615.7156l5.23262-2.6591c.3899-.1982.8511-.1982 1.2411 0l5.2325 2.6591c.498.2531 1.0732-.1644.9862-.7156l-.915-5.7926c-.0682-.4316.0744-.8698.3835-1.179l4.1489-4.1491c.3948-.3949.1751-1.07036-.3767-1.15799l-5.798-.92081c-.4321-.06862-.8052-.33944-1.0041-.72868Zm-2.3637-5.3788c-.3809-.74563-1.4475-.74563-1.8284 0L9.41736 7.7827c-.14914.29193-.42901.49504-.75305.5465l-5.79805.92082c-.82765.13144-1.15725 1.14468-.56502 1.73698l4.14887 4.1491c.23187.2319.33877.5605.28764.8842l-.91496 5.7926c-.1306.8269.7323 1.4531 1.47923 1.0735l5.23258-2.6592c.2924-.1486.6384-.1486.9308 0l5.2326 2.6592c.7469.3796 1.6098-.2466 1.4792-1.0735l-.9149-5.7926c-.0512-.3237.0557-.6523.2876-.8842l4.1489-4.1491c.5922-.5923.2626-1.60554-.5651-1.73698l-5.798-.92082c-.324-.05146-.6039-.25457-.7531-.5465l-2.6684-5.22348Z" clip-rule="evenodd"/>
  <path fill="url(#e)" d="M13.0595 7.7614c.196-.33876.685-.33876.881 0l1.5399 2.6614c.072.1246.1935.2128.3342.2429l3.007.642c.3827.0817.5339.5469.2723.8379l-2.0554 2.2869c-.0962.1071-.1425.2498-.1276.393l.3186 3.0582c.0405.3893-.3551.6767-.7128.5179l-2.8101-1.2481c-.1315-.0584-.2817-.0584-.4132 0l-2.8101 1.2481c-.3577.1588-.75331-.1286-.71276-.5179l.31856-3.0582c.0149-.1432-.0314-.2859-.12765-.393l-2.05531-2.2869c-.26162-.291-.11049-.7562.27226-.8379l3.007-.642c.1407-.0301.2622-.1183.3342-.2429l1.5399-2.6614Z"/>
  <path fill="url(#f)" d="M19.7534 11.6118c-6.3131 5.5167-11.95136 3.0766-13.98137 1.167-3.08791-4.24358 3.68833-.8487 9.69257-2.334 4.8034-1.1882 4.8606.2829 4.2888 1.167Z"/>
  <path fill="#F9BE76" fill-rule="evenodd" d="M11.8759 3.04992c.1052.06437.1467.22102.0926.34988l-.6133 1.46126c-.0541.12886-.1833.18113-.2886.11676-.1052-.06438-.1467-.22102-.0927-.34989l.6134-1.46125c.0541-.12886.1833-.18114.2886-.11676Z" clip-rule="evenodd"/>
  <circle cx="3.5" cy="9.5" r=".5" fill="#F9BE76"/>
  <circle cx="11.5" cy="5.5" r=".5" fill="#F9BE76"/>
  <path fill="url(#g)" fill-opacity=".6" d="M10.8734 8.66572c-2 2.77928-1.33762 4.25548-.7564 4.64618 1.774.767 5.1382-4.0503 5.3857-5.31154.2475-1.26123-2.1293-2.80876-4.6293.66536Z"/>
  <defs>
    <linearGradient id="a" x1="13.5" x2="19.1208" y1="-2e-8" y2="21.7282" gradientUnits="userSpaceOnUse">
      <stop stop-color="#FBA416" stop-opacity="0"/>
      <stop offset="1" stop-color="#FDBB4E" stop-opacity=".63"/>
    </linearGradient>
    <linearGradient id="b" x1="13" x2="18.7183" y1=".769653" y2="22.8999" gradientUnits="userSpaceOnUse">
      <stop stop-color="#FDBB4E" stop-opacity="0"/>
      <stop offset="1" stop-color="#FDBB4E" stop-opacity=".63"/>
    </linearGradient>
    <linearGradient id="d" x1="20.1845" x2="8.39344" y1="17.8562" y2="7.16381" gradientUnits="userSpaceOnUse">
      <stop stop-color="#FEFFD3" stop-opacity=".63"/>
      <stop offset=".218803" stop-color="#FAFD4E" stop-opacity="0"/>
      <stop offset=".491108" stop-color="#FDFF8B" stop-opacity=".56"/>
      <stop offset=".733041" stop-color="#F7F990"/>
      <stop offset="1" stop-color="#fff" stop-opacity="0"/>
      <stop offset="1" stop-color="#FEFFB7" stop-opacity="0"/>
    </linearGradient>
    <linearGradient id="e" x1="13.5" x2="13.3312" y1="7" y2="18.2273" gradientUnits="userSpaceOnUse">
      <stop stop-color="#FEFFB0"/>
      <stop offset=".277442" stop-color="#fff" stop-opacity=".51"/>
      <stop offset="1" stop-color="#FAFD4E" stop-opacity=".15"/>
    </linearGradient>
    <linearGradient id="f" x1="12.5483" x2="12.4744" y1="11.1874" y2="14.9995" gradientUnits="userSpaceOnUse">
      <stop stop-color="#FAFD4E" stop-opacity="0"/>
      <stop offset=".731853" stop-color="#FAFD4E" stop-opacity=".46"/>
    </linearGradient>
    <linearGradient id="g" x1="11.6294" x2="13.8363" y1="9.01588" y2="11.1131" gradientUnits="userSpaceOnUse">
      <stop offset=".223958" stop-color="#FAFD4E" stop-opacity=".35"/>
      <stop offset="1" stop-color="#FAFD4E" stop-opacity="0"/>
    </linearGradient>
    <radialGradient id="c" cx="0" cy="0" r="1" gradientTransform="matrix(9.0661098 11.87510915 -11.87868592 9.0688405 10.0064 10.2527)" gradientUnits="userSpaceOnUse">
      <stop offset=".738765" stop-color="#9CB6DD" stop-opacity="0"/>
      <stop offset=".89825" stop-color="#C6F1FF" stop-opacity=".37"/>
      <stop offset="1" stop-color="#EFFBFF" stop-opacity=".7"/>
    </radialGradient>
  </defs>
</svg>