<svg width="60" height="60" viewBox="0 0 60 60" fill="none" xmlns="http://www.w3.org/2000/svg">
<circle cx="30.0003" cy="29.9998" r="17.1429" fill="white" fill-opacity="0.2"/>
<path d="M50.292 26.6164C50.759 26.5385 51.0761 26.0964 50.9797 25.633C50.1185 21.4953 48.0511 17.6976 45.0294 14.7245C42.0076 11.7515 38.1768 9.74608 34.0257 8.95229C33.5607 8.86338 33.1238 9.18768 33.0536 9.65583C32.9833 10.124 33.3064 10.5585 33.771 10.6491C37.5642 11.3881 41.0634 13.2274 43.8271 15.9465C46.5907 18.6656 48.4867 22.1345 49.2873 25.9151C49.3853 26.3783 49.8251 26.6942 50.292 26.6164Z" fill="white" fill-opacity="0.8"/>
<path d="M9.67798 26.8027C9.21035 26.7291 8.88916 26.2899 8.98137 25.8256C9.80461 21.6802 11.8372 17.8637 14.8316 14.8632C17.826 11.8626 21.6383 9.82217 25.782 8.99041C26.2461 8.89725 26.686 9.21754 26.7605 9.68502C26.835 10.1525 26.5159 10.59 26.0521 10.6848C22.2659 11.4585 18.7837 13.3298 16.045 16.0741C13.3064 18.8184 11.4422 22.3045 10.6763 26.0923C10.5825 26.5563 10.1456 26.8762 9.67798 26.8027Z" fill="white" fill-opacity="0.8"/>
<path d="M33.2904 50.3059C33.3662 50.7732 33.8068 51.0924 34.2707 50.998C38.4123 50.1557 42.2193 48.1056 45.2061 45.0974C48.1929 42.0892 50.2157 38.2676 51.0284 34.1201C51.1194 33.6556 50.7971 33.2172 50.3293 33.1448C49.8615 33.0724 49.4254 33.3935 49.3328 33.8578C48.5765 37.6475 46.7213 41.1383 43.9896 43.8896C41.2579 46.6408 37.7805 48.521 33.9962 49.3043C33.5327 49.4003 33.2147 49.8386 33.2904 50.3059Z" fill="white" fill-opacity="0.8"/>
<path d="M26.6156 50.2913C26.5378 50.7582 26.0957 51.0754 25.6322 50.9789C21.4945 50.1177 17.6969 48.0502 14.7239 45.0284C11.7509 42.0066 9.74555 38.1758 8.95183 34.0246C8.86293 33.5597 9.18723 33.1228 9.65538 33.0525C10.1235 32.9823 10.5581 33.3054 10.6486 33.77C11.3876 37.5632 13.2268 41.0624 15.9459 43.8262C18.665 46.5899 22.1338 48.4859 25.9144 49.2865C26.3775 49.3846 26.6935 49.8244 26.6156 50.2913Z" fill="white" fill-opacity="0.8"/>
<circle cx="29.9989" cy="29.9999" r="3.42857" fill="white" fill-opacity="0.8"/>
<path d="M30 10.714V2.14258" stroke="white" stroke-opacity="0.8" stroke-width="2.14286" stroke-linecap="round"/>
<path d="M49.286 30L57.8574 30" stroke="white" stroke-opacity="0.8" stroke-width="2.14286" stroke-linecap="round"/>
<path d="M30 57.8566V49.2852" stroke="white" stroke-opacity="0.8" stroke-width="2.14286" stroke-linecap="round"/>
<path d="M2.14341 30L10.7148 30" stroke="white" stroke-opacity="0.8" stroke-width="2.14286" stroke-linecap="round"/>
</svg>
